<svg xmlns="http://www.w3.org/2000/svg" viewBox="0 0 100 125"><path d="M33.4 43.8c0 1.8 2.6 3.3 5.9 3.3 3.2 0 5.9-1.5 5.9-3.3V27.9c0-1.4-2.6-2.5-5.9-2.5-3.2 0-5.9 1.1-5.9 2.5v15.9zm5.9-17.5c2.5 0 4.5.7 4.5 1.6s-2 1.6-4.5 1.6-4.5-.7-4.5-1.6 2-1.6 4.5-1.6zm37.9 7.6v.2c0 1.8 2.6 3.3 5.9 3.3 3.2 0 5.9-1.5 5.9-3.3V22.3c-.1-4.7-1.8-9-4.8-12.2C81 6.8 76.7 5 72.1 5s-8.8 1.8-12 5.1c-3 3.2-4.8 7.5-4.8 12.2v30.6c0 1.8 2.6 3.3 5.9 3.3 3.2 0 5.9-1.5 5.9-3.3V22.3c.1-3.4 2.2-5.7 5.1-5.7 2.9 0 5 2.3 5.1 5.6v11.7z"/><path d="M89 41.4v-.3c0-1.4-2.6-2.5-5.9-2.5-3.2 0-5.9 1.1-5.9 2.5v50.5c0 1.8 2.6 3.3 5.9 3.3 3.2 0 5.9-1.5 5.9-3.3V41.4zm-5.9 1.4c-2.5 0-4.5-.7-4.5-1.6 0-.9 2-1.6 4.5-1.6s4.5.7 4.5 1.6c.1.8-2 1.6-4.5 1.6zm-16 18.4s0-.1 0 0V61c0-1.4-2.6-2.5-5.9-2.5-3.2 0-5.9 1.1-5.9 2.5v.3c-.1 3.4-2.2 5.7-5.1 5.7-2.8 0-4.9-2.1-5.1-5.3V50.1c0-1.4-2.6-2.5-5.9-2.5-3 0-5.5 1-5.8 2.3v12.2c.2 4.5 1.9 8.6 4.8 11.7 3.1 3.3 7.4 5.1 12 5.1s8.8-1.8 12-5.1c3-3.2 4.8-7.5 4.8-12.2v-.2c.1-.1.1-.2.1-.2zm-27.8-9.5c-2.5 0-4.5-.7-4.5-1.6 0-.9 2-1.6 4.5-1.6s4.5.7 4.5 1.6c.1.9-2 1.6-4.5 1.6zm21.9 10.9c-2.5 0-4.5-.7-4.5-1.6 0-.9 2-1.6 4.5-1.6s4.5.7 4.5 1.6c0 .9-2 1.6-4.5 1.6zM23.3 29.2c0-1.4-2.6-2.5-5.9-2.5-3.2 0-5.9 1.1-5.9 2.5v33.3c.4 1.5 2.8 2.6 5.8 2.6s5.4-1.1 5.8-2.6v-33c.2-.1.2-.2.2-.3zm-5.9 1.6c-2.5 0-4.5-.7-4.5-1.6s2-1.6 4.5-1.6 4.5.7 4.5 1.6-2 1.6-4.5 1.6zm21.4-5.7c3.1 0 5.7-1.1 5.8-2.6v-.3c-.1-4.7-1.8-9-4.8-12.2-3.2-3.2-7.4-5-12-5s-8.8 1.8-12 5.1c-3 3.2-4.8 7.5-4.8 12.2v.3c.2 1.4 2.7 2.6 5.8 2.6 3.1 0 5.7-1.1 5.8-2.6v-.2c.1-3.4 2.2-5.7 5.1-5.7s5 2.3 5.1 5.7v.2c.3 1.4 2.9 2.5 6 2.5zM23.3 76c0-1.4-2.6-2.5-5.9-2.5-3 0-5.5 1-5.8 2.2v16c0 1.8 2.6 3.3 5.9 3.3 3.2 0 5.9-1.5 5.9-3.3V76.3c-.1-.1-.1-.2-.1-.3zm-5.9 1.6c-2.5 0-4.5-.7-4.5-1.6s2-1.6 4.5-1.6 4.5.7 4.5 1.6-2 1.6-4.5 1.6z"/><text y="115" font-size="5" font-weight="bold" font-family="'Helvetica Neue', Helvetica, Arial-Unicode, Arial, Sans-serif">Created by Raz Cohen</text><text y="120" font-size="5" font-weight="bold" font-family="'Helvetica Neue', Helvetica, Arial-Unicode, Arial, Sans-serif">from the Noun Project</text></svg>